<svg width="600" height="600" viewBox="0 0 600 600" fill="none" xmlns="http://www.w3.org/2000/svg">
<path d="M57.1526 66.0038C59.7288 65.5651 62.6508 65.3581 65.1517 64.1739C65.7909 63.8712 66.1496 63.1182 66.8149 63.0472C67.9798 62.9228 68.1488 60.9798 69.3137 60.8555C69.9696 60.7854 72.7078 59.7588 73.5036 59.3521C79.6296 56.2212 73.3198 62.1672 71.9619 63.8211C70.9767 65.0209 65.5752 73.7238 64.4362 73.347C61.2429 72.2907 64.4423 63.7832 64.4872 61.1034C64.5208 59.1011 64.7161 56.5718 65.5365 54.5883C66.5303 52.1854 65.7171 55.4896 66.0262 56.9689C66.4756 59.1197 67.1829 61.1982 68.3848 62.9732C69.3177 64.3511 72.8299 66.406 73.1269 67.9343C73.2313 68.4713 74.7197 71.5246 73.9007 71.2537C72.1449 70.6729 71.0337 68.6814 69.3252 67.9859C67.5936 67.281 66.0576 66.4204 64.1857 66.9372C62.1232 67.5067 61.4033 67.1249 59.825 65.9591" stroke="#F9A825" stroke-width="1.9846" stroke-linecap="round"/>
<path d="M18.8701 554.3C6.29721 550.822 0.931873 569.944 13.473 573.534C26.0453 577.012 31.4107 557.89 18.8701 554.3Z" fill="#232323"/>
<path d="M88.58 578.912C76.0072 575.434 70.6418 594.556 83.183 598.146C95.7553 601.624 101.121 582.502 88.58 578.912Z" fill="#232323"/>
<path d="M116.793 377.232L116.598 377.177L84.2137 465.236L79.9441 464.034L112.561 375.343C112.632 373.976 113.167 372.675 114.078 371.655C114.989 370.634 116.221 369.957 117.57 369.735C133.765 367.17 140.33 381.569 140.33 381.569L140.265 381.665L107.156 471.694L102.886 470.492L135.021 383.112C125.238 373.42 116.793 377.232 116.793 377.232Z" fill="#232323"/>
<path d="M79.3597 583.864C60.2708 583.572 36.6651 573.241 20.5701 565.496C16.3066 563.449 12.9018 559.96 10.9565 555.644C9.01119 551.328 8.65032 546.463 9.93756 541.906L30.7968 467.579C31.7277 464.285 33.3176 461.215 35.4699 458.556C37.6222 455.896 40.2921 453.703 43.317 452.109C46.2521 450.546 49.4779 449.607 52.7923 449.35C56.1067 449.094 59.4383 449.526 62.5782 450.619C63.323 450.955 83.5875 456.635 96.9972 460.394C104.886 462.605 110.585 464.203 110.967 464.331C111.283 464.436 125.46 469.314 122.944 486.468C121.011 499.643 106.428 548.191 100.247 568.453C98.9044 572.881 96.1848 576.764 92.4847 579.537C88.7847 582.309 84.2975 583.826 79.6768 583.866C79.5718 583.866 79.4651 583.865 79.3597 583.864Z" fill="#2F80ED"/>
<path d="M20.1069 553.236L47.15 461.56L110.743 479.559L111.124 478.214L46.2014 459.838L46.0059 460.5L18.7673 552.839L20.1069 553.236Z" fill="white"/>
<path d="M132.211 384.454L132.209 384.457C131.291 386.361 129.708 387.861 127.76 388.673C125.812 389.486 123.634 389.554 121.639 388.865C119.644 388.177 117.97 386.779 116.935 384.937C115.9 383.095 115.575 380.936 116.023 378.871L116.041 378.787L116.03 378.702L112.348 349.919L124.833 340.665L126.526 371.969L126.545 372.321L126.885 372.419C128.089 372.766 129.202 373.372 130.147 374.197C131.092 375.021 131.845 376.043 132.353 377.191C132.861 378.338 133.111 379.583 133.087 380.838C133.062 382.093 132.763 383.328 132.211 384.454Z" fill="#FFFDF7" stroke="black" stroke-width="0.992299"/>
<path d="M240.745 377.671L241.064 377.522L241.029 377.171L237.883 345.979L251.644 353.195L252.436 382.203L252.439 382.288L252.469 382.368C253.23 384.34 253.241 386.523 252.502 388.503C251.762 390.483 250.324 392.122 248.458 393.111C246.593 394.099 244.431 394.368 242.381 393.866C240.331 393.364 238.536 392.126 237.336 390.387L237.266 390.286C236.584 389.282 236.123 388.144 235.912 386.947C235.695 385.711 235.751 384.442 236.076 383.23C236.401 382.018 236.988 380.892 237.794 379.931C238.601 378.971 239.608 378.199 240.745 377.671Z" fill="#FFFDF7" stroke="black" stroke-width="0.992299"/>
<path d="M172.842 547.623L167.921 587.574L158.259 587.575L158.257 547.623H172.842Z" fill="#FFFDF7" stroke="black" stroke-width="0.992299"/>
<path d="M155.556 597.864L155.555 585.101L175.931 585.1H175.932C179.328 585.1 182.585 586.452 184.986 588.857C187.373 591.247 188.72 594.484 188.737 597.863L155.556 597.864Z" fill="#F9F2E7" stroke="black" stroke-width="0.992299"/>
<path d="M234.499 545.31L221.329 583.343L211.88 581.314L220.237 542.25L234.499 545.31Z" fill="#FFFDF7" stroke="black" stroke-width="0.992299"/>
<path d="M237.743 588.18C239.575 591.016 240.215 594.461 239.527 597.766L207.089 590.805L209.757 578.333L229.673 582.607L229.674 582.607L229.677 582.608L229.678 582.608C232.997 583.321 235.898 585.325 237.743 588.18Z" fill="#F9F2E7" stroke="black"/>
<path d="M205.348 572.234L227.672 485.874L227.724 485.675L227.62 485.498L184.91 412.89L184.081 411.482L183.987 413.113L174.734 572.342L152.928 579.352L150.156 475.399L150.154 475.348L150.142 475.298L138.903 428.018L138.901 428.009L138.898 427.999C133.398 408.342 133.455 389.815 134.889 376.198C135.606 369.391 136.667 363.814 137.548 359.942C137.988 358.005 138.384 356.495 138.668 355.471C138.807 354.973 138.919 354.59 138.998 354.329L229.023 370.793L233.45 391.856L233.454 391.872L233.458 391.887L257.963 479.506L230.197 573.046L205.348 572.234Z" fill="#232323" stroke="black" stroke-width="0.992299"/>
<mask id="path-14-inside-1_77_3864" fill="white">
<path fill-rule="evenodd" clip-rule="evenodd" d="M226.704 235.508L208.164 224.924L168.999 222.657L147.767 233.821L147.686 233.47C147.686 233.47 136.92 234.865 129.459 255.737C121.998 276.609 108.736 320.607 108.736 320.607L109.428 336.591C109.428 336.591 104.317 342.506 107.844 345.207C109.452 346.439 108.268 347.871 106.979 349.429C105.443 351.286 103.76 353.322 106.485 355.41C108.686 357.098 110.352 359.388 111.284 362.002C112.216 364.617 112.373 367.446 111.737 370.148L127.131 365.386L126 340.219L132.098 320.38L147.256 274.204L152.873 312.8C152.873 312.8 131.817 343.067 139.494 363.233C148.969 388.123 231.823 401.108 230.202 376.817C228.55 352.049 226.316 344.388 224.161 336.997C222.981 332.95 221.824 328.983 220.8 322.331C219.94 316.748 220.942 310.738 222.861 304.942L232.926 344.082L237.68 366.635L255.112 370.148C255.112 370.148 253.693 367.806 255.076 363.351C256.462 358.889 254.287 358.926 254.24 358.627C254.215 358.472 254.767 358.226 256.697 357.207C260.126 355.398 257.881 353.853 256 352.56C254.788 351.726 253.728 350.997 254.433 350.368C256.232 348.761 252.848 343.158 252.848 343.158L243.793 299.161C243.793 299.161 241.58 262.251 236.919 247.665C233.236 236.142 228.521 235.338 226.704 235.508Z"/>
</mask>
<path fill-rule="evenodd" clip-rule="evenodd" d="M226.704 235.508L208.164 224.924L168.999 222.657L147.767 233.821L147.686 233.47C147.686 233.47 136.92 234.865 129.459 255.737C121.998 276.609 108.736 320.607 108.736 320.607L109.428 336.591C109.428 336.591 104.317 342.506 107.844 345.207C109.452 346.439 108.268 347.871 106.979 349.429C105.443 351.286 103.76 353.322 106.485 355.41C108.686 357.098 110.352 359.388 111.284 362.002C112.216 364.617 112.373 367.446 111.737 370.148L127.131 365.386L126 340.219L132.098 320.38L147.256 274.204L152.873 312.8C152.873 312.8 131.817 343.067 139.494 363.233C148.969 388.123 231.823 401.108 230.202 376.817C228.55 352.049 226.316 344.388 224.161 336.997C222.981 332.95 221.824 328.983 220.8 322.331C219.94 316.748 220.942 310.738 222.861 304.942L232.926 344.082L237.68 366.635L255.112 370.148C255.112 370.148 253.693 367.806 255.076 363.351C256.462 358.889 254.287 358.926 254.24 358.627C254.215 358.472 254.767 358.226 256.697 357.207C260.126 355.398 257.881 353.853 256 352.56C254.788 351.726 253.728 350.997 254.433 350.368C256.232 348.761 252.848 343.158 252.848 343.158L243.793 299.161C243.793 299.161 241.58 262.251 236.919 247.665C233.236 236.142 228.521 235.338 226.704 235.508Z" fill="#F9F2E7"/>
<path d="M208.164 224.924L208.656 224.062L208.453 223.947L208.221 223.933L208.164 224.924ZM226.704 235.508L226.212 236.37L226.484 236.525L226.796 236.496L226.704 235.508ZM168.999 222.657L169.056 221.666L168.781 221.65L168.537 221.778L168.999 222.657ZM147.767 233.821L146.8 234.044L147.089 235.299L148.228 234.699L147.767 233.821ZM147.686 233.47L148.653 233.247L148.45 232.37L147.558 232.485L147.686 233.47ZM129.459 255.737L130.393 256.071L129.459 255.737ZM108.736 320.607L107.786 320.32L107.737 320.481L107.744 320.65L108.736 320.607ZM109.428 336.591L110.179 337.24L110.437 336.942L110.42 336.548L109.428 336.591ZM107.844 345.207L108.447 344.419H108.447L107.844 345.207ZM106.979 349.429L106.215 348.797H106.215L106.979 349.429ZM106.485 355.41L107.089 354.623L107.089 354.622L106.485 355.41ZM111.284 362.002L112.219 361.669H112.219L111.284 362.002ZM111.737 370.148L110.771 369.921L110.374 371.608L112.03 371.096L111.737 370.148ZM127.131 365.386L127.425 366.334L128.157 366.108L128.123 365.342L127.131 365.386ZM126 340.219L125.051 339.927L125 340.091L125.008 340.263L126 340.219ZM132.098 320.38L131.156 320.071L131.153 320.079L131.15 320.088L132.098 320.38ZM147.256 274.204L148.238 274.061L146.313 273.894L147.256 274.204ZM152.873 312.8L153.688 313.367L153.911 313.045L153.855 312.657L152.873 312.8ZM139.494 363.233L138.566 363.586L139.494 363.233ZM230.202 376.817L231.193 376.751L230.202 376.817ZM224.161 336.997L223.209 337.275L224.161 336.997ZM220.8 322.331L221.78 322.18V322.18L220.8 322.331ZM222.861 304.942L223.822 304.695L222.98 301.424L221.919 304.63L222.861 304.942ZM232.926 344.082L233.897 343.878L233.893 343.856L233.887 343.835L232.926 344.082ZM237.68 366.635L236.709 366.84L236.844 367.479L237.484 367.608L237.68 366.635ZM255.112 370.148L254.916 371.121L257.133 371.567L255.961 369.633L255.112 370.148ZM255.076 363.351L254.129 363.056V363.056L255.076 363.351ZM254.24 358.627L255.22 358.473L255.22 358.473L254.24 358.627ZM256.697 357.207L257.16 358.085L256.697 357.207ZM256 352.56L256.562 351.742H256.562L256 352.56ZM254.433 350.368L253.772 349.627L254.433 350.368ZM252.848 343.158L251.876 343.358L251.911 343.525L251.999 343.671L252.848 343.158ZM243.793 299.161L242.802 299.22L242.807 299.291L242.821 299.361L243.793 299.161ZM236.919 247.665L237.864 247.363L236.919 247.665ZM207.672 225.786L226.212 236.37L227.196 234.646L208.656 224.062L207.672 225.786ZM168.942 223.647L208.106 225.915L208.221 223.933L169.056 221.666L168.942 223.647ZM148.228 234.699L169.461 223.535L168.537 221.778L147.305 232.943L148.228 234.699ZM146.719 233.692L146.8 234.044L148.733 233.598L148.653 233.247L146.719 233.692ZM130.393 256.071C134.074 245.774 138.537 240.369 141.998 237.545C143.73 236.131 145.222 235.354 146.26 234.933C146.779 234.722 147.186 234.6 147.454 234.532C147.588 234.497 147.687 234.477 147.748 234.465C147.778 234.459 147.799 234.456 147.81 234.454C147.816 234.453 147.819 234.453 147.819 234.453C147.82 234.453 147.819 234.453 147.818 234.453C147.818 234.453 147.817 234.453 147.816 234.453C147.816 234.453 147.815 234.453 147.815 234.453C147.814 234.453 147.813 234.454 147.686 233.47C147.558 232.485 147.557 232.486 147.556 232.486C147.556 232.486 147.555 232.486 147.554 232.486C147.552 232.486 147.551 232.486 147.549 232.487C147.545 232.487 147.541 232.488 147.536 232.488C147.526 232.49 147.514 232.492 147.498 232.494C147.468 232.499 147.428 232.506 147.378 232.515C147.277 232.534 147.138 232.564 146.963 232.609C146.613 232.698 146.12 232.848 145.514 233.094C144.3 233.587 142.634 234.464 140.743 236.008C136.955 239.099 132.304 244.829 128.525 255.403L130.393 256.071ZM108.736 320.607C109.686 320.893 109.686 320.893 109.686 320.893C109.686 320.892 109.686 320.892 109.686 320.891C109.687 320.89 109.687 320.888 109.688 320.885C109.69 320.88 109.692 320.872 109.695 320.861C109.702 320.84 109.711 320.808 109.724 320.767C109.749 320.683 109.787 320.558 109.836 320.395C109.935 320.068 110.081 319.585 110.27 318.963C110.647 317.72 111.194 315.921 111.873 313.696C113.233 309.246 115.123 303.096 117.247 296.294C121.495 282.685 126.671 266.485 130.393 256.071L128.525 255.403C124.786 265.86 119.6 282.096 115.352 295.703C113.227 302.51 111.336 308.664 109.975 313.116C109.295 315.342 108.748 317.143 108.37 318.387C108.182 319.01 108.036 319.493 107.937 319.82C107.887 319.984 107.849 320.109 107.824 320.193C107.811 320.235 107.802 320.267 107.795 320.288C107.792 320.299 107.79 320.307 107.788 320.312C107.787 320.315 107.787 320.317 107.786 320.318C107.786 320.319 107.786 320.319 107.786 320.32C107.786 320.32 107.786 320.32 108.736 320.607ZM110.42 336.548L109.727 320.564L107.744 320.65L108.437 336.634L110.42 336.548ZM108.447 344.419C107.837 343.952 107.608 343.377 107.596 342.703C107.583 341.982 107.825 341.147 108.215 340.301C108.599 339.468 109.09 338.699 109.494 338.132C109.694 337.85 109.869 337.623 109.992 337.468C110.054 337.391 110.102 337.331 110.135 337.292C110.151 337.273 110.163 337.259 110.17 337.25C110.174 337.245 110.177 337.242 110.178 337.241C110.179 337.24 110.179 337.239 110.18 337.239C110.18 337.239 110.18 337.239 110.18 337.239C110.179 337.239 110.179 337.239 110.179 337.239C110.179 337.239 110.179 337.24 109.428 336.591C108.677 335.942 108.677 335.942 108.677 335.943C108.677 335.943 108.677 335.943 108.676 335.943C108.676 335.944 108.676 335.944 108.675 335.945C108.674 335.946 108.673 335.948 108.671 335.95C108.667 335.954 108.663 335.959 108.657 335.966C108.645 335.98 108.629 335.999 108.609 336.023C108.568 336.073 108.51 336.143 108.439 336.232C108.297 336.411 108.1 336.667 107.876 336.982C107.431 337.608 106.865 338.487 106.412 339.471C105.965 340.441 105.591 341.591 105.611 342.739C105.633 343.934 106.087 345.111 107.24 345.995L108.447 344.419ZM107.744 350.062C108.347 349.332 109.103 348.439 109.431 347.534C109.608 347.046 109.691 346.482 109.522 345.894C109.354 345.306 108.97 344.819 108.447 344.419L107.24 345.995C107.522 346.21 107.593 346.365 107.614 346.441C107.636 346.516 107.644 346.639 107.565 346.858C107.38 347.367 106.9 347.968 106.215 348.797L107.744 350.062ZM107.089 354.622C106.504 354.175 106.237 353.791 106.12 353.493C106.009 353.21 106.002 352.923 106.092 352.593C106.296 351.841 106.932 351.043 107.744 350.062L106.215 348.797C105.49 349.673 104.517 350.821 104.177 352.073C103.994 352.745 103.981 353.475 104.273 354.218C104.559 354.947 105.103 355.601 105.882 356.198L107.089 354.622ZM112.219 361.669C111.223 358.875 109.442 356.428 107.089 354.623L105.881 356.197C107.93 357.769 109.481 359.901 110.349 362.335L112.219 361.669ZM112.703 370.375C113.383 367.487 113.214 364.464 112.219 361.669L110.349 362.335C111.217 364.77 111.363 367.404 110.771 369.921L112.703 370.375ZM126.838 364.438L111.444 369.2L112.03 371.096L127.425 366.334L126.838 364.438ZM125.008 340.263L126.14 365.431L128.123 365.342L126.991 340.174L125.008 340.263ZM131.15 320.088L125.051 339.927L126.948 340.51L133.047 320.672L131.15 320.088ZM146.313 273.894L131.156 320.071L133.041 320.689L148.199 274.513L146.313 273.894ZM153.855 312.657L148.238 274.061L146.274 274.347L151.891 312.943L153.855 312.657ZM140.421 362.88C136.732 353.188 139.925 340.904 144.217 330.844C146.348 325.85 148.719 321.475 150.558 318.348C151.477 316.785 152.262 315.536 152.817 314.679C153.094 314.251 153.313 313.921 153.462 313.699C153.537 313.588 153.594 313.504 153.632 313.448C153.651 313.42 153.665 313.399 153.675 313.386C153.679 313.379 153.683 313.374 153.685 313.371C153.686 313.369 153.687 313.368 153.687 313.368C153.687 313.367 153.688 313.367 153.688 313.367C153.688 313.367 153.688 313.367 152.873 312.8C152.059 312.234 152.058 312.234 152.058 312.234C152.058 312.235 152.057 312.235 152.057 312.236C152.056 312.237 152.055 312.239 152.054 312.241C152.051 312.245 152.047 312.251 152.041 312.259C152.03 312.274 152.015 312.297 151.994 312.327C151.953 312.387 151.893 312.476 151.815 312.591C151.66 312.823 151.434 313.163 151.15 313.601C150.583 314.479 149.783 315.752 148.848 317.342C146.979 320.519 144.565 324.972 142.392 330.065C138.076 340.18 134.579 353.112 138.566 363.586L140.421 362.88ZM229.212 376.883C229.393 379.596 228.413 381.76 226.494 383.492C224.538 385.257 221.578 386.591 217.818 387.476C210.303 389.245 199.943 389.138 189.159 387.487C178.389 385.838 167.291 382.665 158.32 378.377C149.294 374.062 142.647 368.726 140.421 362.88L138.566 363.586C141.078 370.185 148.341 375.806 157.464 380.167C166.643 384.555 177.934 387.776 188.859 389.449C199.77 391.119 210.412 391.259 218.273 389.408C222.2 388.484 225.522 387.042 227.823 384.965C230.162 382.855 231.417 380.111 231.193 376.751L229.212 376.883ZM223.209 337.275C225.343 344.594 227.564 352.183 229.212 376.883L231.193 376.751C229.535 351.915 227.29 344.183 225.114 336.719L223.209 337.275ZM219.819 322.482C220.854 329.198 222.025 333.214 223.209 337.275L225.114 336.719C223.937 332.685 222.795 328.767 221.78 322.18L219.819 322.482ZM221.919 304.63C219.972 310.509 218.926 316.687 219.819 322.482L221.78 322.18C220.953 316.809 221.911 310.967 223.803 305.254L221.919 304.63ZM233.887 343.835L223.822 304.695L221.9 305.189L231.965 344.329L233.887 343.835ZM238.651 366.431L233.897 343.878L231.955 344.287L236.709 366.84L238.651 366.431ZM255.308 369.175L237.876 365.663L237.484 367.608L254.916 371.121L255.308 369.175ZM254.129 363.056C253.392 365.429 253.389 367.282 253.595 368.576C253.698 369.221 253.851 369.72 253.986 370.069C254.053 370.244 254.116 370.381 254.165 370.48C254.19 370.529 254.211 370.569 254.228 370.6C254.236 370.615 254.243 370.628 254.249 370.638C254.252 370.643 254.255 370.648 254.257 370.652C254.259 370.654 254.26 370.656 254.261 370.657C254.261 370.658 254.262 370.659 254.262 370.66C254.262 370.66 254.263 370.661 254.263 370.661C254.263 370.662 254.263 370.662 255.112 370.148C255.961 369.633 255.961 369.634 255.961 369.634C255.961 369.635 255.962 369.635 255.962 369.635C255.962 369.636 255.963 369.637 255.963 369.637C255.964 369.638 255.964 369.639 255.965 369.64C255.966 369.642 255.966 369.643 255.967 369.644C255.968 369.645 255.967 369.644 255.965 369.641C255.962 369.635 255.954 369.62 255.943 369.597C255.919 369.551 255.882 369.47 255.838 369.355C255.75 369.127 255.635 368.762 255.555 368.264C255.398 367.274 255.377 365.728 256.024 363.645L254.129 363.056ZM253.259 358.782C253.31 359.103 253.49 359.307 253.59 359.401C253.69 359.496 253.791 359.558 253.841 359.587C253.895 359.619 253.954 359.65 253.988 359.668C254.029 359.69 254.06 359.707 254.092 359.725C254.206 359.79 254.291 359.855 254.36 359.964C254.496 360.176 254.793 360.918 254.129 363.056L256.024 363.645C256.745 361.321 256.647 359.851 256.03 358.891C255.723 358.414 255.342 358.154 255.078 358.003C255.016 357.967 254.958 357.936 254.918 357.915C254.872 357.89 254.858 357.883 254.851 357.879C254.839 357.872 254.891 357.9 254.954 357.96C255.018 358.02 255.175 358.189 255.22 358.473L253.259 358.782ZM256.234 356.33C255.29 356.828 254.642 357.159 254.255 357.373C254.068 357.477 253.879 357.586 253.734 357.699C253.663 357.754 253.546 357.852 253.446 357.994C253.338 358.148 253.203 358.426 253.259 358.782L255.22 358.473C255.27 358.79 255.147 359.026 255.072 359.133C255.035 359.185 255.001 359.22 254.983 359.238C254.964 359.256 254.951 359.266 254.95 359.267C254.949 359.268 254.966 359.255 255.016 359.224C255.064 359.195 255.129 359.157 255.216 359.109C255.581 358.907 256.173 358.606 257.16 358.085L256.234 356.33ZM255.438 353.377C255.916 353.707 256.368 354.018 256.745 354.336C257.134 354.664 257.352 354.924 257.443 355.116C257.504 355.244 257.5 355.299 257.44 355.403C257.336 355.584 257.028 355.911 256.234 356.33L257.16 358.085C258.08 357.599 258.778 357.055 259.158 356.396C259.583 355.661 259.543 354.91 259.236 354.264C258.959 353.682 258.477 353.2 258.024 352.818C257.559 352.426 257.024 352.06 256.562 351.742L255.438 353.377ZM253.772 349.627C253.415 349.946 253.16 350.409 253.224 350.97C253.278 351.447 253.547 351.814 253.76 352.051C254.186 352.524 254.873 352.989 255.438 353.377L256.562 351.742C255.915 351.297 255.467 350.98 255.236 350.724C255.12 350.595 255.181 350.61 255.196 350.747C255.206 350.832 255.193 350.926 255.156 351.009C255.123 351.084 255.086 351.115 255.094 351.108L253.772 349.627ZM252.848 343.158C251.999 343.671 251.999 343.671 251.999 343.671C251.999 343.671 251.999 343.671 251.999 343.671C251.999 343.671 251.999 343.671 251.999 343.671C251.999 343.671 251.999 343.672 252 343.673C252.001 343.674 252.003 343.678 252.005 343.682C252.011 343.691 252.019 343.705 252.03 343.724C252.052 343.762 252.086 343.819 252.128 343.893C252.212 344.041 252.332 344.256 252.47 344.52C252.749 345.05 253.098 345.765 253.39 346.519C253.687 347.285 253.903 348.034 253.956 348.648C254.011 349.294 253.869 349.541 253.772 349.627L255.094 351.108C255.896 350.391 256.006 349.336 255.933 348.479C255.857 347.59 255.564 346.638 255.24 345.802C254.912 344.954 254.527 344.168 254.227 343.597C254.077 343.311 253.946 343.076 253.852 342.911C253.805 342.829 253.768 342.764 253.741 342.719C253.728 342.696 253.718 342.678 253.71 342.666C253.707 342.66 253.704 342.655 253.702 342.652C253.7 342.65 253.7 342.648 253.699 342.647C253.699 342.647 253.698 342.646 253.698 342.646C253.698 342.646 253.698 342.645 253.698 342.645C253.698 342.645 253.698 342.645 252.848 343.158ZM242.821 299.361L251.876 343.358L253.82 342.958L244.765 298.961L242.821 299.361ZM235.973 247.967C238.268 255.146 239.979 267.918 241.117 278.984C241.683 284.498 242.105 289.559 242.385 293.241C242.525 295.082 242.629 296.578 242.699 297.613C242.733 298.13 242.759 298.533 242.777 298.805C242.785 298.942 242.792 299.046 242.796 299.116C242.798 299.15 242.8 299.177 242.801 299.194C242.801 299.203 242.802 299.21 242.802 299.214C242.802 299.216 242.802 299.218 242.802 299.219C242.802 299.219 242.802 299.22 242.802 299.22C242.802 299.22 242.802 299.22 243.793 299.161C244.783 299.101 244.783 299.101 244.783 299.101C244.783 299.101 244.783 299.1 244.783 299.1C244.783 299.098 244.783 299.097 244.783 299.094C244.783 299.09 244.782 299.083 244.782 299.074C244.781 299.056 244.779 299.029 244.777 298.994C244.772 298.923 244.766 298.818 244.757 298.68C244.74 298.405 244.714 298 244.679 297.48C244.609 296.44 244.504 294.938 244.364 293.091C244.083 289.396 243.66 284.318 243.091 278.781C241.957 267.745 240.231 254.769 237.864 247.363L235.973 247.967ZM226.796 236.496C227.454 236.434 228.814 236.521 230.461 237.951C232.139 239.408 234.163 242.301 235.973 247.967L237.864 247.363C235.992 241.506 233.817 238.236 231.762 236.452C229.677 234.642 227.77 234.412 226.611 234.52L226.796 236.496Z" fill="black" mask="url(#path-14-inside-1_77_3864)"/>
<path d="M188.667 213.118C205.271 213.118 218.731 199.637 218.731 183.007C218.731 166.377 205.271 152.896 188.667 152.896C172.063 152.896 158.602 166.377 158.602 183.007C158.602 199.637 172.063 213.118 188.667 213.118Z" fill="#171717"/>
<path d="M185.578 164.268C179.109 157.697 171.28 152.627 162.643 149.414C157.099 147.357 151.065 146.086 145.269 147.254C139.472 148.422 133.991 152.438 132.374 158.134C131.052 162.791 132.417 167.806 134.469 172.19C136.521 176.575 139.261 180.64 140.92 185.188C142.613 189.829 143.123 194.819 142.402 199.707C141.681 204.594 139.752 209.224 136.792 213.176C133.831 217.128 129.932 220.276 125.448 222.336C120.964 224.396 116.037 225.301 111.115 224.97C116.81 225.735 122.06 228.415 127.627 229.842C133.193 231.269 139.763 231.172 143.9 227.178C148.277 222.952 148.364 216.081 148.153 209.996C147.838 200.95 147.523 191.904 147.209 182.858C147.048 178.245 146.911 173.484 148.573 169.178C150.234 164.872 154.181 161.102 158.79 161.141C162.283 161.171 165.375 163.29 168.176 165.38C170.977 167.47 173.942 169.7 177.421 170.011C180.9 170.322 184.873 167.743 184.612 164.254L185.578 164.268Z" fill="#171717"/>
<path d="M202.069 175.061C212.552 180.801 216.406 193.967 210.674 204.468C204.943 214.969 191.797 218.828 181.313 213.088C170.829 207.348 166.976 194.182 172.707 183.681C178.439 173.18 191.585 169.321 202.069 175.061Z" fill="#FFFDF7" stroke="black" stroke-width="0.992299"/>
<path d="M222.814 192.398H190.858L190.53 187.803L188.892 192.398H183.971L183.322 183.291L180.075 192.398H170.553V191.947C170.561 185.607 173.079 179.528 177.555 175.045C182.031 170.561 188.101 168.039 194.431 168.032H198.937C205.267 168.039 211.337 170.561 215.813 175.045C220.289 179.528 222.807 185.607 222.814 191.947V192.398Z" fill="#171717"/>
<path d="M175.381 208.915L163.711 197.215L161.744 171.315H187.502L186.865 171.952C177.992 180.828 168.413 193.852 175.381 208.915Z" fill="#171717"/>
<path d="M591.452 600H1.5483C1.13767 600 0.743849 599.895 0.453486 599.707C0.163123 599.52 0 599.265 0 599C0 598.735 0.163123 598.48 0.453486 598.293C0.743849 598.105 1.13767 598 1.5483 598H591.452C591.862 598 592.256 598.105 592.547 598.293C592.837 598.48 593 598.735 593 599C593 599.265 592.837 599.52 592.547 599.707C592.256 599.895 591.862 600 591.452 600Z" fill="black"/>
<path d="M145.483 344.328C151.04 356.235 166.321 371.45 173.267 377.57" stroke="black" stroke-width="2.9769" stroke-linecap="round"/>
<path d="M151.437 325.474C162.352 346.445 192.369 373.242 206.013 384.019" stroke="black" stroke-width="2.9769" stroke-linecap="round"/>
<path d="M156.398 305.628C170.092 329.088 207.749 359.064 224.867 371.12" stroke="black" stroke-width="2.9769" stroke-linecap="round"/>
<path d="M154.414 278.836C167.313 300.163 202.788 327.414 218.913 338.374" stroke="black" stroke-width="2.9769" stroke-linecap="round"/>
<path d="M148.46 243.113C161.757 266.573 198.323 296.549 214.944 308.605" stroke="black" stroke-width="2.9769" stroke-linecap="round"/>
<path d="M229.828 314.559C233.202 318.469 242.48 323.465 246.697 325.474" stroke="black" stroke-width="2.9769" stroke-linecap="round"/>
<path d="M134.568 252.044C136.751 257.376 142.754 264.188 145.483 266.928" stroke="black" stroke-width="2.9769" stroke-linecap="round"/>
<path d="M128.614 266.928C130.797 272.971 136.8 280.692 139.529 283.797" stroke="black" stroke-width="2.9769" stroke-linecap="round"/>
<path d="M122.66 283.797C124.843 289.485 130.846 296.752 133.575 299.674" stroke="black" stroke-width="2.9769" stroke-linecap="round"/>
<path d="M117.698 300.666C119.882 307.42 125.885 316.049 128.614 319.52" stroke="black" stroke-width="2.9769" stroke-linecap="round"/>
<path d="M113.729 317.536C115.515 325 120.427 334.538 122.66 338.374" stroke="black" stroke-width="2.9769" stroke-linecap="round"/>
<path d="M110.752 341.351C112.539 348.815 117.45 358.353 119.683 362.189" stroke="black" stroke-width="2.9769" stroke-linecap="round"/>
<path d="M235.782 341.351C238.958 343.839 247.69 347.018 251.659 348.297" stroke="black" stroke-width="2.9769" stroke-linecap="round"/>
<path d="M159.375 234.182C175.649 257.642 220.401 287.618 240.743 299.674" stroke="black" stroke-width="2.9769" stroke-linecap="round"/>
<path d="M173.267 228.229C185.77 245.29 220.153 267.091 235.782 275.859" stroke="black" stroke-width="2.9769" stroke-linecap="round"/>
<path d="M196.09 228.229C203.235 236.049 222.882 246.041 231.813 250.059" stroke="black" stroke-width="2.9769" stroke-linecap="round"/>
<path d="M71.4712 145.995C74.2943 141.098 77.6861 136.236 79.6819 130.901C80.0937 129.8 80.3855 128.829 80.9758 127.805C81.0842 127.617 81.5147 126.886 81.3307 127.53C81.0965 128.35 80.7514 129.099 80.5353 129.931C79.8348 132.629 78.7742 135.189 78.4405 137.991C78.1534 140.402 78.3158 142.744 78.9419 145.084C79.1434 145.838 79.4434 146.335 79.4398 147.152C79.4362 147.958 77.3197 145.466 77.1094 145.237C74.7855 142.702 72.0002 140.254 69.3019 138.145C67.7388 136.923 66.5848 135.223 64.9462 134.163C63.8847 133.476 66.5112 133.574 66.6237 133.561C71.2979 132.997 75.4973 135.111 79.9461 136.022C81.9427 136.432 83.8623 137.046 85.8043 137.663C86.7336 137.958 87.6688 138.001 88.6032 138.255C88.8982 138.335 90.1275 137.92 89.2558 137.955C88.5359 137.984 87.7349 138.361 87.0001 138.463C85.7262 138.641 84.345 138.866 83.1267 139.281C79.8685 140.393 76.7318 142.131 73.6275 143.617C72.5839 144.116 71.8757 144.272 71.2846 145.298" stroke="#F9A825" stroke-width="1.9846" stroke-linecap="round"/>
<path d="M71.8768 217.534C78.8931 216.205 85.467 215.353 91.3478 211.194C92.3483 210.487 93.1399 209.26 94.1681 208.704C94.5888 208.476 95.3714 207.225 95.1323 207.64C94.3763 208.952 93.3611 209.583 92.5706 210.866C91.9246 211.914 90.6054 212.448 89.9398 213.603C88.9156 215.38 87.9994 217.314 86.7736 218.96C85.8225 220.238 84.8279 221.253 84.0339 222.63C83.337 223.839 82.0533 224.239 81.344 225.47C81.1767 225.76 80.7502 226.867 80.4072 226.959C79.7976 227.123 80.2096 225.745 80.15 225.443C80.0551 224.963 80.5733 224.482 80.6884 224.036C80.8477 223.418 80.5441 222.545 80.5135 221.903C80.4538 220.651 80.4122 219.596 80.5462 218.328C80.6423 217.418 79.8996 216.117 80.2056 215.299C80.5283 214.436 79.9187 214.343 80.0604 213.555C80.1746 212.919 80.2339 212.17 80.0673 211.547C79.8491 210.731 80.4082 210.276 80.4556 209.486C80.4919 208.88 80.8651 205.783 81.1012 207.047C81.8169 210.876 83.8977 214.65 86.123 217.822C87.2709 219.458 88.7811 220.487 90.3102 221.689C90.6968 221.993 92.8504 223.11 92.6273 223.556C91.8241 225.16 86.5804 223.288 85.4658 222.853C83.5434 222.101 81.2075 221.717 79.1757 221.247C77.2495 220.801 75.3293 220.448 73.4076 220.021C71.6296 219.625 69.8177 218.101 68.2207 217.178" stroke="#F9A825" stroke-width="1.9846" stroke-linecap="round"/>
<path d="M133.297 108.155C136.516 107.458 140.231 107.023 143.189 105.422C143.945 105.013 144.24 104.072 145.081 103.944C146.552 103.719 146.341 101.338 147.813 101.114C148.641 100.987 151.939 99.5637 152.874 99.0179C160.067 94.8154 153.259 102.464 151.877 104.566C150.874 106.092 145.844 117.047 144.295 116.658C139.951 115.569 142.189 104.99 141.655 101.718C141.256 99.273 140.948 96.1752 141.566 93.704C142.314 90.7105 141.997 94.7923 142.722 96.5777C143.776 99.1735 145.146 101.665 147.085 103.755C148.59 105.378 153.565 107.666 154.285 109.511C154.538 110.16 157.129 113.792 156.015 113.513C153.626 112.914 151.756 110.554 149.403 109.812C147.018 109.06 144.851 108.106 142.556 108.854C140.027 109.678 139.016 109.257 136.727 107.933" stroke="#F9A825" stroke-width="1.9846" stroke-linecap="round"/>
<g clip-path="url(#clip0_77_3864)">
<rect x="295" width="298.243" height="600" rx="31.7867" fill="white"/>
<rect x="303.5" y="8.5" width="281.107" height="582.285" rx="26.5187" fill="white"/>
<rect x="324" y="77" width="247.141" height="162.859" rx="1.58933" fill="#F9F2E7"/>
<path d="M322.509 98.1717C311.781 153.08 316.151 222.478 322.509 252.22C339.941 253.491 387.599 256.338 438.776 257.558C489.953 258.779 543.54 254.508 563.936 252.22C563.936 252.22 561.552 223.573 561.155 171.458C560.757 119.343 563.936 98.1717 563.936 98.1717C556.387 99.9511 530.242 104.273 486.059 107.323C441.875 110.374 365.667 102.493 333.085 98.1717" stroke="#4B4B4B"/>
<path d="M340 234.45C349.94 223.653 363.229 206.512 375.692 218.898C381.947 224.74 391.736 239.217 401.106 229.753L474.281 156.21C475.658 154.843 477.294 153.767 479.091 153.044C480.888 152.322 482.811 151.968 484.747 152.002C486.682 152.037 488.591 152.46 490.362 153.247C492.132 154.034 493.728 155.169 495.056 156.584L556 222.462C553.768 228.529 551.03 234.396 547.815 240H342.976L340 234.45Z" fill="white"/>
<path d="M398.127 168.254C407.034 168.254 414.254 161.034 414.254 152.127C414.254 143.22 407.034 136 398.127 136C389.22 136 382 143.22 382 152.127C382 161.034 389.22 168.254 398.127 168.254Z" fill="#F9A825"/>
<path d="M324.191 50L328.021 39.5104H330.643L334.474 50H332.201L331.327 47.4412H327.29L326.432 50H324.191ZM328.847 42.8321L327.83 45.8201H330.786L329.801 42.8639L329.324 41.2746H329.292L328.847 42.8321ZM339.229 41.8944C340.288 41.8944 341.109 42.1222 341.692 42.5778C342.285 43.0334 342.678 43.5844 342.868 44.2307L340.834 44.9618C340.622 43.9976 340.098 43.5155 339.26 43.5155C338.657 43.5155 338.185 43.7274 337.846 44.1513C337.517 44.5751 337.353 45.2055 337.353 46.0426C337.353 46.8902 337.523 47.5206 337.862 47.9339C338.211 48.3365 338.683 48.5378 339.276 48.5378C340.198 48.5378 340.749 48.0663 340.929 47.1233L342.9 47.759C342.72 48.4689 342.317 49.0464 341.692 49.4914C341.078 49.9364 340.278 50.1589 339.292 50.1589C338.466 50.1589 337.74 49.9947 337.115 49.6662C336.5 49.3378 336.024 48.8663 335.684 48.2517C335.345 47.6372 335.176 46.8955 335.176 46.0267C335.176 45.1578 335.345 44.4161 335.684 43.8016C336.034 43.1871 336.511 42.7156 337.115 42.3871C337.729 42.0586 338.434 41.8944 339.229 41.8944ZM349.948 42.0533V43.6745H347.405V47.4094C347.405 47.7908 347.5 48.0716 347.691 48.2517C347.892 48.4213 348.163 48.506 348.502 48.506C348.777 48.506 349.01 48.4689 349.201 48.3948C349.402 48.31 349.582 48.1988 349.741 48.061L350.091 49.5073C349.826 49.7086 349.503 49.8676 349.122 49.9841C348.751 50.1007 348.353 50.1589 347.93 50.1589C347.135 50.1589 346.483 49.9788 345.975 49.6186C345.477 49.2477 345.228 48.6279 345.228 47.759V43.6745H343.765V42.0533H345.228V40.2256L347.405 39.6217V42.0533H349.948ZM352.518 40.909C351.617 40.909 351.167 40.5223 351.167 39.7488C351.167 38.9647 351.617 38.5727 352.518 38.5727C353.418 38.5727 353.869 38.9647 353.869 39.7488C353.869 40.5223 353.418 40.909 352.518 40.909ZM353.598 42.0533V50H351.421V42.0533H353.598ZM361.12 42.0533H363.376L360.357 50H357.846L354.826 42.0533H357.162L359.117 48.3312L361.12 42.0533ZM365.679 40.909C364.779 40.909 364.328 40.5223 364.328 39.7488C364.328 38.9647 364.779 38.5727 365.679 38.5727C366.58 38.5727 367.03 38.9647 367.03 39.7488C367.03 40.5223 366.58 40.909 365.679 40.909ZM366.76 42.0533V50H364.583V42.0533H366.76ZM374.424 42.0533V43.6745H371.881V47.4094C371.881 47.7908 371.977 48.0716 372.167 48.2517C372.369 48.4213 372.639 48.506 372.978 48.506C373.254 48.506 373.487 48.4689 373.677 48.3948C373.879 48.31 374.059 48.1988 374.218 48.061L374.567 49.5073C374.302 49.7086 373.979 49.8676 373.598 49.9841C373.227 50.1007 372.83 50.1589 372.406 50.1589C371.611 50.1589 370.96 49.9788 370.451 49.6186C369.953 49.2477 369.704 48.6279 369.704 47.759V43.6745H368.242V42.0533H369.704V40.2256L371.881 39.6217V42.0533H374.424ZM376.994 40.909C376.093 40.909 375.643 40.5223 375.643 39.7488C375.643 38.9647 376.093 38.5727 376.994 38.5727C377.895 38.5727 378.345 38.9647 378.345 39.7488C378.345 40.5223 377.895 40.909 376.994 40.909ZM378.075 42.0533V50H375.897V42.0533H378.075ZM384.07 50.1589C382.82 50.1589 381.819 49.7987 381.066 49.0782C380.314 48.3471 379.938 47.3299 379.938 46.0267C379.938 45.1578 380.107 44.4161 380.447 43.8016C380.786 43.1871 381.257 42.7156 381.861 42.3871C382.476 42.0586 383.175 41.8944 383.959 41.8944C384.764 41.8944 385.448 42.0586 386.009 42.3871C386.571 42.705 387 43.1447 387.297 43.7062C387.593 44.2572 387.742 44.8876 387.742 45.5975C387.742 45.8095 387.736 46.0108 387.726 46.2015C387.715 46.3922 387.699 46.5617 387.678 46.7101H382.068C382.152 47.3246 382.364 47.7855 382.703 48.0928C383.053 48.3895 383.503 48.5378 384.054 48.5378C384.521 48.5378 384.897 48.4478 385.183 48.2676C385.469 48.0875 385.691 47.8385 385.85 47.5206L387.583 48.1882C387.328 48.8133 386.883 49.3007 386.248 49.6503C385.612 49.9894 384.886 50.1589 384.07 50.1589ZM383.943 43.4996C382.915 43.4996 382.295 44.0665 382.084 45.2002H385.66C385.596 44.6492 385.416 44.2307 385.119 43.9446C384.833 43.648 384.441 43.4996 383.943 43.4996ZM392.765 50.1589C391.96 50.1589 391.224 50.0159 390.556 49.7298C389.899 49.4437 389.364 49.0411 388.951 48.5219L390.207 47.2505C390.461 47.6319 390.8 47.9445 391.224 48.1882C391.648 48.4319 392.151 48.5537 392.734 48.5537C393.147 48.5537 393.475 48.4954 393.719 48.3789C393.973 48.2517 394.101 48.0557 394.101 47.7908C394.101 47.6213 394.042 47.4783 393.926 47.3617C393.809 47.2346 393.576 47.1339 393.226 47.0597L391.828 46.7737C390.906 46.5829 390.249 46.2969 389.857 45.9154C389.476 45.5234 389.285 45.0201 389.285 44.4055C389.285 43.9711 389.412 43.5632 389.666 43.1818C389.931 42.8003 390.323 42.493 390.842 42.2599C391.362 42.0162 392.008 41.8944 392.781 41.8944C394.392 41.8944 395.547 42.3871 396.246 43.3725L394.943 44.6439C394.71 44.2731 394.402 43.9923 394.021 43.8016C393.65 43.6003 393.258 43.4996 392.845 43.4996C391.913 43.4996 391.446 43.7592 391.446 44.2784C391.446 44.4479 391.521 44.5963 391.669 44.7234C391.817 44.84 392.087 44.9406 392.479 45.0254L394.101 45.3591C394.885 45.5181 395.446 45.7883 395.785 46.1697C396.124 46.5406 396.294 46.9909 396.294 47.5206C396.294 48.2835 395.987 48.914 395.372 49.4119C394.768 49.9099 393.899 50.1589 392.765 50.1589Z" fill="#4B4B4B"/>
<path d="M329.42 366.51C331.062 366.51 332.333 366.966 333.234 367.877C334.135 368.788 334.585 370.081 334.585 371.755C334.585 373.429 334.135 374.722 333.234 375.633C332.333 376.544 331.062 377 329.42 377H325.367V366.51H329.42ZM329.308 375.252C330.304 375.252 331.051 374.955 331.549 374.362C332.058 373.758 332.312 372.889 332.312 371.755C332.312 370.621 332.058 369.758 331.549 369.165C331.051 368.561 330.304 368.259 329.308 368.259H327.56V375.252H329.308ZM340.255 377.159C339.005 377.159 338.003 376.799 337.251 376.078C336.499 375.347 336.123 374.33 336.123 373.027C336.123 372.158 336.292 371.416 336.631 370.802C336.97 370.187 337.442 369.716 338.046 369.387C338.66 369.059 339.36 368.894 340.144 368.894C340.949 368.894 341.632 369.059 342.194 369.387C342.755 369.705 343.185 370.145 343.481 370.706C343.778 371.257 343.926 371.888 343.926 372.598C343.926 372.809 343.921 373.011 343.91 373.201C343.9 373.392 343.884 373.562 343.863 373.71H338.252C338.337 374.325 338.549 374.786 338.888 375.093C339.238 375.389 339.688 375.538 340.239 375.538C340.705 375.538 341.081 375.448 341.367 375.268C341.654 375.088 341.876 374.839 342.035 374.521L343.767 375.188C343.513 375.813 343.068 376.301 342.432 376.65C341.797 376.989 341.071 377.159 340.255 377.159ZM340.128 370.5C339.1 370.5 338.48 371.066 338.268 372.2H341.844C341.781 371.649 341.601 371.231 341.304 370.945C341.018 370.648 340.626 370.5 340.128 370.5ZM350.988 369.053V370.674H348.445V374.409C348.445 374.791 348.54 375.072 348.731 375.252C348.932 375.421 349.203 375.506 349.542 375.506C349.817 375.506 350.05 375.469 350.241 375.395C350.442 375.31 350.622 375.199 350.781 375.061L351.131 376.507C350.866 376.709 350.543 376.868 350.161 376.984C349.791 377.101 349.393 377.159 348.969 377.159C348.175 377.159 347.523 376.979 347.015 376.619C346.517 376.248 346.268 375.628 346.268 374.759V370.674H344.805V369.053H346.268V367.226L348.445 366.622V369.053H350.988ZM357.068 371.93C357.068 371.474 356.936 371.119 356.671 370.865C356.417 370.611 356.078 370.484 355.654 370.484C355.262 370.484 354.917 370.584 354.621 370.786C354.324 370.987 354.107 371.321 353.969 371.787L352.109 371.215C352.29 370.516 352.682 369.954 353.286 369.53C353.9 369.106 354.721 368.894 355.749 368.894C356.787 368.894 357.624 369.143 358.26 369.641C358.907 370.129 359.23 370.86 359.23 371.835V375.061C359.23 375.464 359.42 375.665 359.802 375.665C359.982 375.665 360.151 375.638 360.31 375.585L360.183 376.936C359.908 377.074 359.563 377.143 359.15 377.143C358.695 377.143 358.297 377.048 357.958 376.857C357.63 376.666 357.407 376.38 357.291 375.999C357.036 376.38 356.671 376.672 356.194 376.873C355.728 377.064 355.246 377.159 354.748 377.159C353.943 377.159 353.301 376.979 352.825 376.619C352.358 376.248 352.125 375.713 352.125 375.013C352.125 374.42 352.316 373.938 352.698 373.567C353.079 373.186 353.625 372.926 354.335 372.788L357.068 372.232V371.93ZM354.303 374.807C354.303 375.072 354.398 375.273 354.589 375.411C354.79 375.548 355.029 375.617 355.304 375.617C355.611 375.617 355.897 375.57 356.162 375.474C356.427 375.379 356.644 375.22 356.814 374.997C356.983 374.764 357.068 374.457 357.068 374.076V373.583L355.399 373.917C355.039 373.991 354.764 374.092 354.573 374.219C354.393 374.335 354.303 374.531 354.303 374.807ZM362.761 367.909C361.861 367.909 361.411 367.522 361.411 366.749C361.411 365.965 361.861 365.573 362.761 365.573C363.662 365.573 364.112 365.965 364.112 366.749C364.112 367.522 363.662 367.909 362.761 367.909ZM363.842 369.053V377H361.665V369.053H363.842ZM368.296 365.573V374.552C368.296 374.923 368.36 375.183 368.487 375.331C368.614 375.48 368.826 375.554 369.122 375.554C369.303 375.554 369.451 375.543 369.567 375.522C369.684 375.501 369.832 375.458 370.012 375.395L369.822 376.825C369.642 376.931 369.414 377.011 369.138 377.064C368.873 377.127 368.609 377.159 368.344 377.159C367.57 377.159 367.003 376.974 366.643 376.603C366.293 376.221 366.119 375.617 366.119 374.791V365.573H368.296ZM374.404 377.159C373.599 377.159 372.863 377.016 372.195 376.73C371.538 376.444 371.003 376.041 370.59 375.522L371.846 374.25C372.1 374.632 372.439 374.944 372.863 375.188C373.287 375.432 373.79 375.554 374.373 375.554C374.786 375.554 375.114 375.495 375.358 375.379C375.612 375.252 375.739 375.056 375.739 374.791C375.739 374.621 375.681 374.478 375.565 374.362C375.448 374.235 375.215 374.134 374.865 374.06L373.467 373.774C372.545 373.583 371.888 373.297 371.496 372.915C371.114 372.523 370.924 372.02 370.924 371.406C370.924 370.971 371.051 370.563 371.305 370.182C371.57 369.8 371.962 369.493 372.481 369.26C373 369.016 373.647 368.894 374.42 368.894C376.031 368.894 377.186 369.387 377.885 370.372L376.582 371.644C376.349 371.273 376.041 370.992 375.66 370.802C375.289 370.6 374.897 370.5 374.484 370.5C373.551 370.5 373.085 370.759 373.085 371.278C373.085 371.448 373.159 371.596 373.308 371.723C373.456 371.84 373.726 371.941 374.118 372.025L375.739 372.359C376.523 372.518 377.085 372.788 377.424 373.17C377.763 373.541 377.933 373.991 377.933 374.521C377.933 375.284 377.625 375.914 377.011 376.412C376.407 376.91 375.538 377.159 374.404 377.159Z" fill="#4B4B4B"/>
<path d="M327.136 279.76V283.554H331.21V279.76H333.142V289H331.21V285.108H327.136V289H325.204V279.76H327.136ZM336.324 280.992C335.53 280.992 335.134 280.651 335.134 279.97C335.134 279.279 335.53 278.934 336.324 278.934C337.117 278.934 337.514 279.279 337.514 279.97C337.514 280.651 337.117 280.992 336.324 280.992ZM337.276 282V289H335.358V282H337.276ZM341.227 278.934V285.192L344.251 282H346.435L343.803 284.744L346.603 289H344.433L342.501 285.906L341.227 287.264V289H339.309V278.934H341.227ZM350.637 289.14C349.536 289.14 348.654 288.823 347.991 288.188C347.328 287.544 346.997 286.648 346.997 285.5C346.997 284.735 347.146 284.081 347.445 283.54C347.744 282.999 348.159 282.583 348.691 282.294C349.232 282.005 349.848 281.86 350.539 281.86C351.248 281.86 351.85 282.005 352.345 282.294C352.84 282.574 353.218 282.961 353.479 283.456C353.74 283.941 353.871 284.497 353.871 285.122C353.871 285.309 353.866 285.486 353.857 285.654C353.848 285.822 353.834 285.971 353.815 286.102H348.873C348.948 286.643 349.134 287.049 349.433 287.32C349.741 287.581 350.138 287.712 350.623 287.712C351.034 287.712 351.365 287.633 351.617 287.474C351.869 287.315 352.065 287.096 352.205 286.816L353.731 287.404C353.507 287.955 353.115 288.384 352.555 288.692C351.995 288.991 351.356 289.14 350.637 289.14ZM350.525 283.274C349.62 283.274 349.074 283.773 348.887 284.772H352.037C351.981 284.287 351.822 283.918 351.561 283.666C351.309 283.405 350.964 283.274 350.525 283.274ZM360.742 280.992C359.948 280.992 359.552 280.651 359.552 279.97C359.552 279.279 359.948 278.934 360.742 278.934C361.535 278.934 361.932 279.279 361.932 279.97C361.932 280.651 361.535 280.992 360.742 280.992ZM361.694 282V289H359.776V282H361.694ZM363.727 289V282H365.449L365.519 283.316C365.733 282.831 366.046 282.467 366.457 282.224C366.877 281.981 367.357 281.86 367.899 281.86C368.627 281.86 369.229 282.075 369.705 282.504C370.181 282.924 370.419 283.559 370.419 284.408V289H368.501V284.954C368.501 284.357 368.379 283.946 368.137 283.722C367.903 283.489 367.605 283.372 367.241 283.372C366.979 283.372 366.723 283.437 366.471 283.568C366.228 283.689 366.027 283.89 365.869 284.17C365.719 284.45 365.645 284.823 365.645 285.29V289H363.727ZM381.228 282V283.428H378.988V286.718C378.988 287.054 379.072 287.301 379.24 287.46C379.417 287.609 379.655 287.684 379.954 287.684C380.197 287.684 380.402 287.651 380.57 287.586C380.747 287.511 380.906 287.413 381.046 287.292L381.354 288.566C381.121 288.743 380.836 288.883 380.5 288.986C380.173 289.089 379.823 289.14 379.45 289.14C378.75 289.14 378.176 288.981 377.728 288.664C377.289 288.337 377.07 287.791 377.07 287.026V283.428H375.782V282H377.07V280.39L378.988 279.858V282H381.228ZM382.635 289V278.934H384.553V283.19C384.777 282.742 385.085 282.411 385.477 282.196C385.869 281.972 386.312 281.86 386.807 281.86C387.535 281.86 388.137 282.075 388.613 282.504C389.089 282.924 389.327 283.559 389.327 284.408V289H387.409V284.968C387.409 284.361 387.292 283.946 387.059 283.722C386.826 283.489 386.527 283.372 386.163 283.372C385.892 283.372 385.636 283.437 385.393 283.568C385.15 283.689 384.95 283.895 384.791 284.184C384.632 284.464 384.553 284.837 384.553 285.304V289H382.635ZM394.551 289.14C393.45 289.14 392.568 288.823 391.905 288.188C391.242 287.544 390.911 286.648 390.911 285.5C390.911 284.735 391.06 284.081 391.359 283.54C391.658 282.999 392.073 282.583 392.605 282.294C393.146 282.005 393.762 281.86 394.453 281.86C395.162 281.86 395.764 282.005 396.259 282.294C396.754 282.574 397.132 282.961 397.393 283.456C397.654 283.941 397.785 284.497 397.785 285.122C397.785 285.309 397.78 285.486 397.771 285.654C397.762 285.822 397.748 285.971 397.729 286.102H392.787C392.862 286.643 393.048 287.049 393.347 287.32C393.655 287.581 394.052 287.712 394.537 287.712C394.948 287.712 395.279 287.633 395.531 287.474C395.783 287.315 395.979 287.096 396.119 286.816L397.645 287.404C397.421 287.955 397.029 288.384 396.469 288.692C395.909 288.991 395.27 289.14 394.551 289.14ZM394.439 283.274C393.534 283.274 392.988 283.773 392.801 284.772H395.951C395.895 284.287 395.736 283.918 395.475 283.666C395.223 283.405 394.878 283.274 394.439 283.274ZM403.69 289V282H405.412L405.482 283.26C405.715 282.793 406.032 282.443 406.434 282.21C406.844 281.977 407.297 281.86 407.792 281.86C408.296 281.86 408.748 281.977 409.15 282.21C409.56 282.434 409.868 282.779 410.074 283.246C410.288 282.779 410.62 282.434 411.068 282.21C411.516 281.977 411.978 281.86 412.454 281.86C412.911 281.86 413.326 281.953 413.7 282.14C414.082 282.327 414.386 282.607 414.61 282.98C414.834 283.353 414.946 283.829 414.946 284.408V289H413.028V284.786C413.028 284.273 412.911 283.909 412.678 283.694C412.454 283.479 412.169 283.372 411.824 283.372C411.394 283.372 411.03 283.531 410.732 283.848C410.433 284.156 410.284 284.618 410.284 285.234V289H408.366V284.786C408.366 284.273 408.249 283.909 408.016 283.694C407.792 283.479 407.502 283.372 407.148 283.372C406.905 283.372 406.662 283.437 406.42 283.568C406.186 283.699 405.99 283.904 405.832 284.184C405.682 284.464 405.608 284.833 405.608 285.29V289H403.69ZM420.116 281.86C420.816 281.86 421.437 282.005 421.978 282.294C422.519 282.583 422.939 282.999 423.238 283.54C423.546 284.081 423.7 284.735 423.7 285.5C423.7 286.265 423.546 286.919 423.238 287.46C422.939 288.001 422.519 288.417 421.978 288.706C421.437 288.995 420.816 289.14 420.116 289.14C419.407 289.14 418.781 288.995 418.24 288.706C417.708 288.417 417.288 288.001 416.98 287.46C416.681 286.919 416.532 286.265 416.532 285.5C416.532 284.735 416.681 284.081 416.98 283.54C417.288 282.999 417.708 282.583 418.24 282.294C418.781 282.005 419.407 281.86 420.116 281.86ZM420.116 283.288C419.593 283.288 419.183 283.475 418.884 283.848C418.595 284.212 418.45 284.763 418.45 285.5C418.45 286.237 418.595 286.793 418.884 287.166C419.183 287.53 419.593 287.712 420.116 287.712C420.629 287.712 421.031 287.53 421.32 287.166C421.619 286.793 421.768 286.237 421.768 285.5C421.768 284.763 421.619 284.212 421.32 283.848C421.031 283.475 420.629 283.288 420.116 283.288ZM427.741 289.14C427.274 289.14 426.854 289.056 426.481 288.888C426.108 288.72 425.809 288.454 425.585 288.09C425.37 287.726 425.263 287.245 425.263 286.648V282H427.181V286.186C427.181 286.727 427.293 287.105 427.517 287.32C427.741 287.525 428.063 287.628 428.483 287.628C428.884 287.628 429.239 287.483 429.547 287.194C429.864 286.895 430.023 286.419 430.023 285.766V282H431.941V289H430.233L430.163 287.782C429.93 288.239 429.608 288.58 429.197 288.804C428.786 289.028 428.301 289.14 427.741 289.14ZM433.959 289V282H435.681L435.751 283.316C435.966 282.831 436.279 282.467 436.689 282.224C437.109 281.981 437.59 281.86 438.131 281.86C438.859 281.86 439.461 282.075 439.937 282.504C440.413 282.924 440.651 283.559 440.651 284.408V289H438.733V284.954C438.733 284.357 438.612 283.946 438.369 283.722C438.136 283.489 437.837 283.372 437.473 283.372C437.212 283.372 436.955 283.437 436.703 283.568C436.461 283.689 436.26 283.89 436.101 284.17C435.952 284.45 435.877 284.823 435.877 285.29V289H433.959ZM447.29 282V283.428H445.05V286.718C445.05 287.054 445.134 287.301 445.302 287.46C445.48 287.609 445.718 287.684 446.016 287.684C446.259 287.684 446.464 287.651 446.632 287.586C446.81 287.511 446.968 287.413 447.108 287.292L447.416 288.566C447.183 288.743 446.898 288.883 446.562 288.986C446.236 289.089 445.886 289.14 445.512 289.14C444.812 289.14 444.238 288.981 443.79 288.664C443.352 288.337 443.132 287.791 443.132 287.026V283.428H441.844V282H443.132V280.39L445.05 279.858V282H447.29ZM452.646 284.534C452.646 284.133 452.53 283.82 452.296 283.596C452.072 283.372 451.774 283.26 451.4 283.26C451.055 283.26 450.752 283.349 450.49 283.526C450.229 283.703 450.038 283.997 449.916 284.408L448.278 283.904C448.437 283.288 448.782 282.793 449.314 282.42C449.856 282.047 450.579 281.86 451.484 281.86C452.399 281.86 453.136 282.079 453.696 282.518C454.266 282.947 454.55 283.591 454.55 284.45V287.292C454.55 287.647 454.718 287.824 455.054 287.824C455.213 287.824 455.362 287.801 455.502 287.754L455.39 288.944C455.148 289.065 454.844 289.126 454.48 289.126C454.079 289.126 453.729 289.042 453.43 288.874C453.141 288.706 452.945 288.454 452.842 288.118C452.618 288.454 452.296 288.711 451.876 288.888C451.466 289.056 451.041 289.14 450.602 289.14C449.893 289.14 449.328 288.981 448.908 288.664C448.498 288.337 448.292 287.866 448.292 287.25C448.292 286.727 448.46 286.303 448.796 285.976C449.132 285.64 449.613 285.411 450.238 285.29L452.646 284.8V284.534ZM450.21 287.068C450.21 287.301 450.294 287.479 450.462 287.6C450.64 287.721 450.85 287.782 451.092 287.782C451.363 287.782 451.615 287.74 451.848 287.656C452.082 287.572 452.273 287.432 452.422 287.236C452.572 287.031 452.646 286.76 452.646 286.424V285.99L451.176 286.284C450.859 286.349 450.616 286.438 450.448 286.55C450.29 286.653 450.21 286.825 450.21 287.068ZM457.662 280.992C456.868 280.992 456.472 280.651 456.472 279.97C456.472 279.279 456.868 278.934 457.662 278.934C458.455 278.934 458.852 279.279 458.852 279.97C458.852 280.651 458.455 280.992 457.662 280.992ZM458.614 282V289H456.696V282H458.614ZM460.647 289V282H462.369L462.439 283.316C462.653 282.831 462.966 282.467 463.377 282.224C463.797 281.981 464.277 281.86 464.819 281.86C465.547 281.86 466.149 282.075 466.625 282.504C467.101 282.924 467.339 283.559 467.339 284.408V289H465.421V284.954C465.421 284.357 465.299 283.946 465.057 283.722C464.823 283.489 464.525 283.372 464.161 283.372C463.899 283.372 463.643 283.437 463.391 283.568C463.148 283.689 462.947 283.89 462.789 284.17C462.639 284.45 462.565 284.823 462.565 285.29V289H460.647ZM472.115 289.14C471.405 289.14 470.757 289.014 470.169 288.762C469.59 288.51 469.119 288.155 468.755 287.698L469.861 286.578C470.085 286.914 470.383 287.189 470.757 287.404C471.13 287.619 471.573 287.726 472.087 287.726C472.451 287.726 472.74 287.675 472.955 287.572C473.179 287.46 473.291 287.287 473.291 287.054C473.291 286.905 473.239 286.779 473.137 286.676C473.034 286.564 472.829 286.475 472.521 286.41L471.289 286.158C470.477 285.99 469.898 285.738 469.553 285.402C469.217 285.057 469.049 284.613 469.049 284.072C469.049 283.689 469.161 283.33 469.385 282.994C469.618 282.658 469.963 282.387 470.421 282.182C470.878 281.967 471.447 281.86 472.129 281.86C473.547 281.86 474.565 282.294 475.181 283.162L474.033 284.282C473.827 283.955 473.557 283.708 473.221 283.54C472.894 283.363 472.549 283.274 472.185 283.274C471.363 283.274 470.953 283.503 470.953 283.96C470.953 284.109 471.018 284.24 471.149 284.352C471.279 284.455 471.517 284.543 471.863 284.618L473.291 284.912C473.981 285.052 474.476 285.29 474.775 285.626C475.073 285.953 475.223 286.349 475.223 286.816C475.223 287.488 474.952 288.043 474.411 288.482C473.879 288.921 473.113 289.14 472.115 289.14ZM329.558 302V303.428H327.43V309H325.512V303.428H324.294V302H325.512V301.16C325.512 300.367 325.759 299.774 326.254 299.382C326.749 298.99 327.374 298.794 328.13 298.794C328.457 298.794 328.751 298.831 329.012 298.906C329.273 298.971 329.474 299.055 329.614 299.158L329.348 300.432C329.245 300.367 329.129 300.315 328.998 300.278C328.867 300.241 328.713 300.222 328.536 300.222C328.172 300.222 327.883 300.306 327.668 300.474C327.453 300.633 327.346 300.908 327.346 301.3V302H329.558ZM333.778 301.86C334.478 301.86 335.099 302.005 335.64 302.294C336.181 302.583 336.601 302.999 336.9 303.54C337.208 304.081 337.362 304.735 337.362 305.5C337.362 306.265 337.208 306.919 336.9 307.46C336.601 308.001 336.181 308.417 335.64 308.706C335.099 308.995 334.478 309.14 333.778 309.14C333.069 309.14 332.443 308.995 331.902 308.706C331.37 308.417 330.95 308.001 330.642 307.46C330.343 306.919 330.194 306.265 330.194 305.5C330.194 304.735 330.343 304.081 330.642 303.54C330.95 302.999 331.37 302.583 331.902 302.294C332.443 302.005 333.069 301.86 333.778 301.86ZM333.778 303.288C333.255 303.288 332.845 303.475 332.546 303.848C332.257 304.212 332.112 304.763 332.112 305.5C332.112 306.237 332.257 306.793 332.546 307.166C332.845 307.53 333.255 307.712 333.778 307.712C334.291 307.712 334.693 307.53 334.982 307.166C335.281 306.793 335.43 306.237 335.43 305.5C335.43 304.763 335.281 304.212 334.982 303.848C334.693 303.475 334.291 303.288 333.778 303.288ZM338.967 309V302H340.633L340.759 303.372C340.936 302.896 341.202 302.527 341.557 302.266C341.921 301.995 342.378 301.86 342.929 301.86C343.256 301.86 343.508 301.911 343.685 302.014L343.461 303.624C343.368 303.596 343.251 303.573 343.111 303.554C342.98 303.526 342.808 303.512 342.593 303.512C342.304 303.512 342.028 303.582 341.767 303.722C341.515 303.853 341.305 304.058 341.137 304.338C340.969 304.609 340.885 304.954 340.885 305.374V309H338.967ZM353.46 302V303.428H351.22V306.718C351.22 307.054 351.304 307.301 351.472 307.46C351.65 307.609 351.888 307.684 352.186 307.684C352.429 307.684 352.634 307.651 352.802 307.586C352.98 307.511 353.138 307.413 353.278 307.292L353.586 308.566C353.353 308.743 353.068 308.883 352.732 308.986C352.406 309.089 352.056 309.14 351.682 309.14C350.982 309.14 350.408 308.981 349.96 308.664C349.522 308.337 349.302 307.791 349.302 307.026V303.428H348.014V302H349.302V300.39L351.22 299.858V302H353.46ZM363.788 302H365.832L363.592 309H361.38L359.854 304.24L358.384 309H356.172L353.932 302H355.976L357.376 307.362L358.93 302H360.834L362.402 307.362L363.788 302ZM370.022 301.86C370.722 301.86 371.343 302.005 371.884 302.294C372.426 302.583 372.846 302.999 373.144 303.54C373.452 304.081 373.606 304.735 373.606 305.5C373.606 306.265 373.452 306.919 373.144 307.46C372.846 308.001 372.426 308.417 371.884 308.706C371.343 308.995 370.722 309.14 370.022 309.14C369.313 309.14 368.688 308.995 368.146 308.706C367.614 308.417 367.194 308.001 366.886 307.46C366.588 306.919 366.438 306.265 366.438 305.5C366.438 304.735 366.588 304.081 366.886 303.54C367.194 302.999 367.614 302.583 368.146 302.294C368.688 302.005 369.313 301.86 370.022 301.86ZM370.022 303.288C369.5 303.288 369.089 303.475 368.79 303.848C368.501 304.212 368.356 304.763 368.356 305.5C368.356 306.237 368.501 306.793 368.79 307.166C369.089 307.53 369.5 307.712 370.022 307.712C370.536 307.712 370.937 307.53 371.226 307.166C371.525 306.793 371.674 306.237 371.674 305.5C371.674 304.763 371.525 304.212 371.226 303.848C370.937 303.475 370.536 303.288 370.022 303.288ZM379.49 311.94V302H381.212L381.296 303.372C381.492 302.924 381.791 302.56 382.192 302.28C382.603 302 383.084 301.86 383.634 301.86C384.204 301.86 384.712 302.005 385.16 302.294C385.608 302.583 385.958 302.999 386.21 303.54C386.472 304.072 386.602 304.721 386.602 305.486C386.602 306.251 386.472 306.909 386.21 307.46C385.949 308.001 385.59 308.417 385.132 308.706C384.684 308.995 384.171 309.14 383.592 309.14C383.079 309.14 382.636 309.019 382.262 308.776C381.898 308.533 381.614 308.211 381.408 307.81V311.94H379.49ZM383.032 307.67C383.546 307.67 383.947 307.488 384.236 307.124C384.535 306.751 384.684 306.209 384.684 305.5C384.684 304.791 384.54 304.254 384.25 303.89C383.97 303.517 383.574 303.33 383.06 303.33C382.566 303.33 382.164 303.521 381.856 303.904C381.558 304.287 381.408 304.819 381.408 305.5C381.408 306.172 381.553 306.704 381.842 307.096C382.141 307.479 382.538 307.67 383.032 307.67ZM391.516 309.14C390.414 309.14 389.532 308.823 388.87 308.188C388.207 307.544 387.876 306.648 387.876 305.5C387.876 304.735 388.025 304.081 388.324 303.54C388.622 302.999 389.038 302.583 389.57 302.294C390.111 302.005 390.727 301.86 391.418 301.86C392.127 301.86 392.729 302.005 393.224 302.294C393.718 302.574 394.096 302.961 394.358 303.456C394.619 303.941 394.75 304.497 394.75 305.122C394.75 305.309 394.745 305.486 394.736 305.654C394.726 305.822 394.712 305.971 394.694 306.102H389.752C389.826 306.643 390.013 307.049 390.312 307.32C390.62 307.581 391.016 307.712 391.502 307.712C391.912 307.712 392.244 307.633 392.496 307.474C392.748 307.315 392.944 307.096 393.084 306.816L394.61 307.404C394.386 307.955 393.994 308.384 393.434 308.692C392.874 308.991 392.234 309.14 391.516 309.14ZM391.404 303.274C390.498 303.274 389.952 303.773 389.766 304.772H392.916C392.86 304.287 392.701 303.918 392.44 303.666C392.188 303.405 391.842 303.274 391.404 303.274ZM396.375 309V302H398.041L398.167 303.372C398.345 302.896 398.611 302.527 398.965 302.266C399.329 301.995 399.787 301.86 400.337 301.86C400.664 301.86 400.916 301.911 401.093 302.014L400.869 303.624C400.776 303.596 400.659 303.573 400.519 303.554C400.389 303.526 400.216 303.512 400.001 303.512C399.712 303.512 399.437 303.582 399.175 303.722C398.923 303.853 398.713 304.058 398.545 304.338C398.377 304.609 398.293 304.954 398.293 305.374V309H396.375ZM404.904 309.14C404.194 309.14 403.546 309.014 402.958 308.762C402.379 308.51 401.908 308.155 401.544 307.698L402.65 306.578C402.874 306.914 403.172 307.189 403.546 307.404C403.919 307.619 404.362 307.726 404.876 307.726C405.24 307.726 405.529 307.675 405.744 307.572C405.968 307.46 406.08 307.287 406.08 307.054C406.08 306.905 406.028 306.779 405.926 306.676C405.823 306.564 405.618 306.475 405.31 306.41L404.078 306.158C403.266 305.99 402.687 305.738 402.342 305.402C402.006 305.057 401.838 304.613 401.838 304.072C401.838 303.689 401.95 303.33 402.174 302.994C402.407 302.658 402.752 302.387 403.21 302.182C403.667 301.967 404.236 301.86 404.918 301.86C406.336 301.86 407.354 302.294 407.97 303.162L406.822 304.282C406.616 303.955 406.346 303.708 406.01 303.54C405.683 303.363 405.338 303.274 404.974 303.274C404.152 303.274 403.742 303.503 403.742 303.96C403.742 304.109 403.807 304.24 403.938 304.352C404.068 304.455 404.306 304.543 404.652 304.618L406.08 304.912C406.77 305.052 407.265 305.29 407.564 305.626C407.862 305.953 408.012 306.349 408.012 306.816C408.012 307.488 407.741 308.043 407.2 308.482C406.668 308.921 405.902 309.14 404.904 309.14ZM412.706 301.86C413.406 301.86 414.027 302.005 414.568 302.294C415.109 302.583 415.529 302.999 415.828 303.54C416.136 304.081 416.29 304.735 416.29 305.5C416.29 306.265 416.136 306.919 415.828 307.46C415.529 308.001 415.109 308.417 414.568 308.706C414.027 308.995 413.406 309.14 412.706 309.14C411.997 309.14 411.371 308.995 410.83 308.706C410.298 308.417 409.878 308.001 409.57 307.46C409.271 306.919 409.122 306.265 409.122 305.5C409.122 304.735 409.271 304.081 409.57 303.54C409.878 302.999 410.298 302.583 410.83 302.294C411.371 302.005 411.997 301.86 412.706 301.86ZM412.706 303.288C412.183 303.288 411.773 303.475 411.474 303.848C411.185 304.212 411.04 304.763 411.04 305.5C411.04 306.237 411.185 306.793 411.474 307.166C411.773 307.53 412.183 307.712 412.706 307.712C413.219 307.712 413.621 307.53 413.91 307.166C414.209 306.793 414.358 306.237 414.358 305.5C414.358 304.763 414.209 304.212 413.91 303.848C413.621 303.475 413.219 303.288 412.706 303.288ZM417.895 309V302H419.617L419.687 303.316C419.901 302.831 420.214 302.467 420.625 302.224C421.045 301.981 421.525 301.86 422.067 301.86C422.795 301.86 423.397 302.075 423.873 302.504C424.349 302.924 424.587 303.559 424.587 304.408V309H422.669V304.954C422.669 304.357 422.547 303.946 422.305 303.722C422.071 303.489 421.773 303.372 421.409 303.372C421.147 303.372 420.891 303.437 420.639 303.568C420.396 303.689 420.195 303.89 420.037 304.17C419.887 304.45 419.813 304.823 419.813 305.29V309H417.895ZM429.363 309.14C428.653 309.14 428.005 309.014 427.417 308.762C426.838 308.51 426.367 308.155 426.003 307.698L427.109 306.578C427.333 306.914 427.631 307.189 428.005 307.404C428.378 307.619 428.821 307.726 429.335 307.726C429.699 307.726 429.988 307.675 430.203 307.572C430.427 307.46 430.539 307.287 430.539 307.054C430.539 306.905 430.487 306.779 430.385 306.676C430.282 306.564 430.077 306.475 429.769 306.41L428.537 306.158C427.725 305.99 427.146 305.738 426.801 305.402C426.465 305.057 426.297 304.613 426.297 304.072C426.297 303.689 426.409 303.33 426.633 302.994C426.866 302.658 427.211 302.387 427.669 302.182C428.126 301.967 428.695 301.86 429.377 301.86C430.795 301.86 431.813 302.294 432.429 303.162L431.281 304.282C431.075 303.955 430.805 303.708 430.469 303.54C430.142 303.363 429.797 303.274 429.433 303.274C428.611 303.274 428.201 303.503 428.201 303.96C428.201 304.109 428.266 304.24 428.397 304.352C428.527 304.455 428.765 304.543 429.111 304.618L430.539 304.912C431.229 305.052 431.724 305.29 432.023 305.626C432.321 305.953 432.471 306.349 432.471 306.816C432.471 307.488 432.2 308.043 431.659 308.482C431.127 308.921 430.361 309.14 429.363 309.14Z" fill="#4B4B4B"/>
<path d="M514.342 302.679C519.501 302.679 523.684 298.498 523.684 293.34C523.684 288.182 519.501 284 514.342 284C509.183 284 505 288.182 505 293.34C505 298.498 509.183 302.679 514.342 302.679Z" fill="#2F2F2F"/>
<path d="M519.013 294.118V292.561H509.671V294.118H519.013Z" fill="white"/>
<path d="M534.442 299V293.148C534.442 292.933 534.442 292.714 534.442 292.49C534.451 292.257 534.461 292.019 534.47 291.776C534.153 292.075 533.798 292.331 533.406 292.546C533.014 292.751 532.613 292.896 532.202 292.98L531.95 291.356C532.155 291.328 532.393 291.263 532.664 291.16C532.935 291.057 533.205 290.931 533.476 290.782C533.756 290.633 534.008 290.469 534.232 290.292C534.465 290.115 534.643 289.937 534.764 289.76H536.332V299H534.442Z" fill="#4B4B4B"/>
<path d="M555.026 302.679C560.185 302.679 564.368 298.498 564.368 293.34C564.368 288.182 560.185 284 555.026 284C549.866 284 545.684 288.182 545.684 293.34C545.684 298.498 549.866 302.679 555.026 302.679Z" fill="#2F2F2F"/>
<path d="M559.697 292.561H555.804V288.67H554.247V292.561H550.355V294.118H554.247V298.01H555.804V294.118H559.697V292.561Z" fill="white"/>
<rect x="323.947" y="398" width="247.141" height="79.4667" rx="1.58933" fill="#F9F2E7"/>
<path d="M322.509 408.331C311.781 435.123 316.151 468.986 322.509 483.498C339.941 484.118 387.599 485.508 438.776 486.103C489.953 486.698 543.54 484.615 563.936 483.498C563.936 483.498 561.552 469.52 561.155 444.091C560.757 418.661 563.936 408.331 563.936 408.331C556.387 409.199 530.242 411.308 486.059 412.796C441.875 414.284 365.667 410.439 333.085 408.331" stroke="#4B4B4B"/>
<path d="M331.283 434.448C338.673 434.448 346.062 434.448 353.452 434.448C362.627 434.448 373.284 433.37 381.832 429.546C384.497 428.354 384.994 427.605 387.687 429.355C391.09 431.567 392.173 435.391 395.477 437.662C399.715 440.576 405.344 437.652 409.939 436.682C417.078 435.175 423.904 431.997 431.291 431.997C433.883 431.997 435.638 432.5 437.909 433.005C438.77 433.196 438.965 434.465 439.162 435.157C439.323 435.72 441.55 435.429 442.076 435.429C448.441 435.429 454.465 432.924 460.651 431.616C467.564 430.155 474.281 430.036 481.295 430.036C484.365 430.036 483.207 433.869 484.727 433.958C490.507 434.298 496.16 431.622 501.45 429.655C507.78 427.301 515.267 427.585 521.958 427.585C524.246 427.585 522.669 430.117 525.526 429.437C526.717 429.153 527.356 428.168 528.413 427.64C529.771 426.961 531.295 426.83 532.661 426.114C535.382 424.689 538.272 424.725 541.104 423.663" stroke="#4B4B4B" stroke-linecap="round"/>
<path d="M338.146 460.431C343.22 460.431 348.187 459.092 353.234 458.47C361.865 457.408 371.044 456.509 379.734 456.509C380.817 456.509 389.331 455.586 390.002 456.727C390.629 457.793 389.131 460.141 389.131 461.412C389.131 464.881 398.569 461.912 400.025 461.412C406.73 459.109 413.921 457.657 420.942 456.754C425.972 456.108 430.622 455.529 435.703 455.529C437.176 455.529 438.747 456.114 439.108 457.735C439.349 458.819 440.276 459.451 441.368 459.451C446.413 459.451 451.304 457.415 456.239 456.509C458.036 456.18 476.24 450.331 476.393 453.078C476.699 458.596 486.576 454.937 489.03 454.657C491.628 454.361 494.319 454.548 496.928 454.548C499.836 454.548 502.29 453.42 505.099 452.833C507.514 452.327 509.789 451.17 512.18 450.735C514.006 450.403 515.375 450.5 517.083 449.646" stroke="#4B4B4B" stroke-linecap="round"/>
<rect x="303.5" y="8.5" width="281.107" height="582.285" rx="26.5187" stroke="#CBCBCB"/>
<rect x="320" y="512.56" width="247.141" height="43.7067" rx="1.58933" fill="#2F80ED"/>
<path d="M413.093 538.712V530.32H416.768C417.785 530.32 418.535 530.519 419.018 530.918C419.502 531.316 419.743 531.88 419.743 532.609C419.743 533.058 419.608 533.457 419.336 533.804C419.065 534.152 418.667 534.372 418.141 534.465V534.478C418.726 534.563 419.175 534.783 419.489 535.139C419.803 535.495 419.959 535.919 419.959 536.411C419.959 537.131 419.697 537.695 419.171 538.102C418.654 538.508 417.895 538.712 416.895 538.712H413.093ZM414.797 533.842H416.539C417.463 533.842 417.925 533.482 417.925 532.761C417.925 532.041 417.463 531.681 416.539 531.681H414.797V533.842ZM414.797 537.39H416.743C417.209 537.39 417.556 537.296 417.785 537.11C418.023 536.915 418.141 536.639 418.141 536.283C418.141 535.936 418.023 535.669 417.785 535.482C417.556 535.287 417.209 535.19 416.743 535.19H414.797V537.39ZM424.357 532.227C424.993 532.227 425.556 532.359 426.048 532.622C426.54 532.884 426.921 533.262 427.192 533.753C427.472 534.245 427.612 534.838 427.612 535.533C427.612 536.228 427.472 536.822 427.192 537.313C426.921 537.805 426.54 538.182 426.048 538.445C425.556 538.708 424.993 538.839 424.357 538.839C423.713 538.839 423.145 538.708 422.653 538.445C422.17 538.182 421.789 537.805 421.509 537.313C421.238 536.822 421.102 536.228 421.102 535.533C421.102 534.838 421.238 534.245 421.509 533.753C421.789 533.262 422.17 532.884 422.653 532.622C423.145 532.359 423.713 532.227 424.357 532.227ZM424.357 533.524C423.882 533.524 423.509 533.694 423.238 534.033C422.975 534.363 422.844 534.864 422.844 535.533C422.844 536.203 422.975 536.707 423.238 537.046C423.509 537.377 423.882 537.542 424.357 537.542C424.823 537.542 425.188 537.377 425.451 537.046C425.722 536.707 425.857 536.203 425.857 535.533C425.857 534.864 425.722 534.363 425.451 534.033C425.188 533.694 424.823 533.524 424.357 533.524ZM431.968 532.227C432.604 532.227 433.168 532.359 433.66 532.622C434.151 532.884 434.533 533.262 434.804 533.753C435.084 534.245 435.223 534.838 435.223 535.533C435.223 536.228 435.084 536.822 434.804 537.313C434.533 537.805 434.151 538.182 433.66 538.445C433.168 538.708 432.604 538.839 431.968 538.839C431.324 538.839 430.756 538.708 430.265 538.445C429.782 538.182 429.4 537.805 429.12 537.313C428.849 536.822 428.714 536.228 428.714 535.533C428.714 534.838 428.849 534.245 429.12 533.753C429.4 533.262 429.782 532.884 430.265 532.622C430.756 532.359 431.324 532.227 431.968 532.227ZM431.968 533.524C431.494 533.524 431.121 533.694 430.85 534.033C430.587 534.363 430.455 534.864 430.455 535.533C430.455 536.203 430.587 536.707 430.85 537.046C431.121 537.377 431.494 537.542 431.968 537.542C432.435 537.542 432.799 537.377 433.062 537.046C433.333 536.707 433.469 536.203 433.469 535.533C433.469 534.864 433.333 534.363 433.062 534.033C432.799 533.694 432.435 533.524 431.968 533.524ZM438.423 529.57V535.254L441.169 532.355H443.153L440.762 534.847L443.305 538.712H441.335L439.58 535.902L438.423 537.135V538.712H436.681V529.57H438.423ZM455.392 530.32V538.712H453.383L450.446 533.779L449.721 532.405H449.709L449.76 533.855V538.712H448.183V530.32H450.179L453.116 535.241L453.841 536.627H453.866L453.816 535.177V530.32H455.392ZM460.241 532.227C460.877 532.227 461.441 532.359 461.932 532.622C462.424 532.884 462.805 533.262 463.077 533.753C463.356 534.245 463.496 534.838 463.496 535.533C463.496 536.228 463.356 536.822 463.077 537.313C462.805 537.805 462.424 538.182 461.932 538.445C461.441 538.708 460.877 538.839 460.241 538.839C459.597 538.839 459.029 538.708 458.537 538.445C458.054 538.182 457.673 537.805 457.393 537.313C457.122 536.822 456.986 536.228 456.986 535.533C456.986 534.838 457.122 534.245 457.393 533.753C457.673 533.262 458.054 532.884 458.537 532.622C459.029 532.359 459.597 532.227 460.241 532.227ZM460.241 533.524C459.767 533.524 459.394 533.694 459.122 534.033C458.86 534.363 458.728 534.864 458.728 535.533C458.728 536.203 458.86 536.707 459.122 537.046C459.394 537.377 459.767 537.542 460.241 537.542C460.707 537.542 461.072 537.377 461.335 537.046C461.606 536.707 461.742 536.203 461.742 535.533C461.742 534.864 461.606 534.363 461.335 534.033C461.072 533.694 460.707 533.524 460.241 533.524ZM472.981 532.355H474.837L472.803 538.712H470.794L469.408 534.389L468.073 538.712H466.064L464.03 532.355H465.886L467.158 537.224L468.569 532.355H470.298L471.722 537.224L472.981 532.355Z" fill="white"/>
<path d="M592.012 70.8705C596.016 68.3683 598.584 65.3787 601.991 62.6527C605.35 59.9657 605.649 62.4231 607.013 65.0006C608.339 67.5044 609.88 66.7833 610.861 70.2183C611.348 71.9202 613.513 73.9569 614.318 75.5665" stroke="white" stroke-width="2" stroke-linecap="round"/>
</g>
<rect x="296" y="1" width="296.243" height="598" rx="30.7867" stroke="#4B4B4B" stroke-width="2"/>
<defs>
<clipPath id="clip0_77_3864">
<rect x="295" width="298.243" height="600" rx="31.7867" fill="white"/>
</clipPath>
</defs>
</svg>
