<?xml version="1.0" encoding="iso-8859-1"?>
<!-- Uploaded to: SVG Repo, www.svgrepo.com, Generator: SVG Repo Mixer Tools -->
<svg fill="#000000" height="800px" width="800px" version="1.1" id="Layer_1" xmlns="http://www.w3.org/2000/svg" xmlns:xlink="http://www.w3.org/1999/xlink" 
	 viewBox="0 0 511.999 511.999" xml:space="preserve">
<g>
	<g>
		<circle cx="382.689" cy="42.392" r="42.092"/>
	</g>
</g>
<g>
	<g>
		<path d="M502.653,353.407c-4.973,0-7.893,0-12.822,0c0-5.215,0-45.021,0-50.146c0-6.323-3.329-11.868-8.317-15.019
			c2.186-7.238,19.646-65.081,21.878-72.473c1.282-4.246,1.067-8.758-0.278-12.592l-25.4-72.404
			C470.814,111.11,452.178,97.9,431.341,97.9H414.63c-2.643,6.905-21.361,55.809-23.934,62.528l5.659-26.66
			c0.397-1.872,0.109-3.825-0.814-5.501l-7.771-14.135l6.909-12.567c1.028-1.871-0.327-4.168-2.465-4.168H373.25
			c-2.136,0-3.496,2.295-2.465,4.168l6.909,12.567l-7.8,14.188c-0.905,1.646-1.2,3.557-0.835,5.399l4.948,26.71L350.323,97.9
			h-22.255c-26.368,0-48.304,21.452-48.435,47.82v149.205c-0.057,11.216,8.615,20.354,19.832,20.411c0.034,0,0.07,0.001,0.105,0.001
			c11.168-0.001,20.75-9.026,20.807-20.207V145.924c0-0.018,0-0.036,0-0.055c0.027-2.216,2.088-3.993,4.304-3.98
			s4.004,1.814,4.004,4.03l0.009,341.408c0,13.46,10.911,24.371,24.371,24.371c13.46,0,24.371-10.912,24.371-24.371v-194.8h10.522
			v65.096c2.209-10.312,10.91-18.246,21.611-19.261V303.26c0-16.022,11.508-29.4,26.689-32.321V144.754
			c0-0.785,0.565-1.455,1.339-1.587c0.773-0.132,1.529,0.314,1.788,1.054l23.208,66.152c-2.326,7.704-20.467,67.798-22.744,75.339
			c-8.546,1.282-15.127,8.651-15.127,17.549v50.146c-4.876,0-7.869,0-12.822,0c-5.163,0-9.347,4.185-9.347,9.347
			c0,15.065,0,112.447,0,124.397c0,4.991,3.915,9.057,8.84,9.322v6.792c0,4.872,4.139,8.744,9.038,8.387
			c4.359-0.318,7.8-3.946,7.8-8.387v-6.767h58.091v6.767c0,4.871,4.137,8.744,9.038,8.387c4.359-0.318,7.8-3.946,7.8-8.387v-6.792
			c4.925-0.266,8.84-4.33,8.84-9.322c0-20.601,0-110.836,0-124.397C512,357.593,507.814,353.407,502.653,353.407z M441.561,306.574
			c3.902,5.647,10.207,8.765,16.698,8.765c5.608,0,10.933-2.35,14.733-6.356v44.423h-31.431V306.574z M483.949,409.254h-53.347
			c-4.192,0-7.577-3.41-7.577-7.578c0-4.166,3.383-7.578,7.577-7.578c23.471,0,28.634,0,53.347,0c4.189,0,7.577,3.406,7.577,7.578
			C491.526,405.849,488.136,409.254,483.949,409.254z"/>
	</g>
</g>
<g>
	<g>
		<path d="M94.109,115.342c-3.521,0-5.597,1.949-5.597,6.288v16.664c0,4.339,2.076,6.288,5.597,6.288
			c3.521,0,5.659-1.949,5.659-6.288v-16.663C99.769,117.291,97.63,115.342,94.109,115.342z"/>
	</g>
</g>
<g>
	<g>
		<path d="M230.374,0.301H20.033C8.969,0.301,0,9.27,0,20.334v136.315c0,11.064,8.969,20.033,20.033,20.033h210.342
			c11.064,0,20.033-8.969,20.033-20.033V20.334C250.407,9.27,241.438,0.301,230.374,0.301z M125.203,63.237l4.231,12.479
			l13.176,0.168l-10.56,7.881l3.912,12.583l-10.757-7.608l-10.758,7.608l3.912-12.583l-10.56-7.881l13.176-0.168L125.203,63.237z
			 M97.531,28.688l4.231-12.479l4.231,12.479l13.176,0.168l-10.56,7.881l3.912,12.583l-10.758-7.608L91.006,49.32l3.912-12.583
			l-10.56-7.881L97.531,28.688z M72.416,149.741c0,2.012-2.453,3.018-4.905,3.018s-4.905-1.006-4.905-3.018v-17.042H50.093v17.042
			c0,2.012-2.453,3.018-4.905,3.018c-2.452,0-4.905-1.006-4.905-3.018v-39.995c0-2.074,2.453-2.955,4.905-2.955
			c2.452,0,4.905,0.88,4.905,2.955v15.407h12.514v-15.407c0-2.074,2.453-2.955,4.905-2.955s4.905,0.88,4.905,2.955V149.741z
			 M67.563,96.347l3.912-12.583l-10.56-7.881l13.174-0.168l4.231-12.479l4.231,12.479l13.176,0.168l-10.561,7.881l3.912,12.583
			l-10.757-7.608L67.563,96.347z M109.578,138.294c0,10.816-6.792,14.841-15.47,14.841s-15.406-4.024-15.406-14.841v-16.663
			c0-10.816,6.729-14.841,15.406-14.841s15.47,4.024,15.47,14.841V138.294z M142.404,115.594h-8.679v34.147
			c0,2.012-2.453,3.018-4.905,3.018c-2.453,0-4.905-1.006-4.905-3.018v-34.147h-8.677c-1.886,0-2.956-2.074-2.956-4.465
			c0-2.074,0.88-4.338,2.956-4.338h27.166c2.074,0,2.955,2.264,2.955,4.338C145.359,113.518,144.289,115.594,142.404,115.594z
			 M137.89,49.32l3.912-12.583l-10.561-7.881l13.174-0.168l4.231-12.479l4.231,12.479l13.176,0.168l-10.56,7.881l3.912,12.583
			l-10.758-7.608L137.89,49.32z M168.497,125.968v0.002c1.886,0,2.956,1.824,2.956,3.835c0,1.698-0.88,3.711-2.956,3.711h-9.433
			v10.69h16.854c1.886,0,2.955,2.013,2.955,4.338c0,2.013-0.88,4.214-2.955,4.214h-22.386c-2.138,0-4.277-1.006-4.277-3.018v-39.932
			c0-2.012,2.139-3.018,4.277-3.018h22.386c2.075,0,2.955,2.201,2.955,4.212c0,2.327-1.068,4.339-2.955,4.339h-16.854v10.627
			H168.497z M172.089,88.739l-10.758,7.608l3.912-12.583l-10.56-7.881l13.176-0.168l4.229-12.479l4.231,12.479l13.176,0.168
			l-10.56,7.881l3.912,12.583L172.089,88.739z M207.295,152.759h-19.87c-2.138,0-4.277-1.006-4.277-3.018v-39.995
			c0-2.074,2.453-2.955,4.905-2.955c2.453,0,4.905,0.88,4.905,2.955v34.46h14.338c1.886,0,2.83,2.138,2.83,4.277
			C210.125,150.621,209.181,152.759,207.295,152.759z"/>
	</g>
</g>
<g>
	<g>
		<path d="M250.065,217.83c-9.219,0-16.694,7.474-16.694,16.694v215.906H183.93c9.381,0,16.987-7.605,16.987-16.987v-30.578
			c0-9.381-7.605-16.986-16.987-16.986h23.18c4.671,0,8.457-3.786,8.457-8.457V359.28c0-4.671-3.786-8.457-8.457-8.457h-34.154
			c5.371-3,9.007-8.734,9.007-15.324v-58.944c0-9.691-7.857-17.549-17.549-17.549h-1.815v-24.484c0-4.185-3.392-7.578-7.577-7.578
			h-45.766c-4.185,0-7.577,3.393-7.577,7.578v24.484h-1.815c-9.692,0-17.549,7.857-17.549,17.549v58.944
			c0,6.59,3.636,12.322,9.007,15.324H73.001c-4.671,0-8.457,3.786-8.457,8.457v18.143c0,4.671,3.786,8.457,8.457,8.457H53.72
			c-9.381,0-16.987,7.605-16.987,16.986v30.576c0,9.381,7.605,16.986,16.987,16.986H25.255c-9.219,0-16.694,7.474-16.694,16.694
			s7.474,16.694,16.694,16.694h20.827c-0.309,1.51-0.471,3.074-0.471,4.675c0,12.816,10.39,23.207,23.207,23.207
			s23.207-10.39,23.207-23.207c0-1.602-0.162-3.165-0.471-4.675h80.289c-0.309,1.51-0.471,3.074-0.471,4.675
			c0,12.816,10.39,23.207,23.207,23.207s23.207-10.39,23.207-23.207c0-1.602-0.162-3.165-0.471-4.675h32.752
			c9.219,0,16.694-7.474,16.694-16.694v-232.6C266.759,225.303,259.286,217.83,250.065,217.83z M116.833,242.101h30.612v16.906
			h-30.612V242.101z M144.332,425.733H93.318c-4.185,0-7.577-3.393-7.577-7.578c0-4.185,3.392-7.578,7.577-7.578h51.014
			c4.185,0,7.577,3.393,7.577,7.578C151.909,422.339,148.517,425.733,144.332,425.733z"/>
	</g>
</g>
</svg>